<svg xmlns="http://www.w3.org/2000/svg" width="64.442" height="58.946" viewBox="0 0 64.442 58.946">
  <g id="Group_673" data-name="Group 673" transform="translate(-1311.947 -3006)">
    <path id="Path_144" data-name="Path 144" d="M-1180.053,3647.564h64.442" transform="translate(2492 -583.119)" fill="none" stroke="#173654" stroke-width="1"/>
    <g id="Group_305" data-name="Group 305" transform="translate(1312 3006)">
      <g id="Ellipse_35" data-name="Ellipse 35" transform="translate(0 37.643)" fill="none" stroke="#173654" stroke-width="1">
        <circle cx="4.953" cy="4.953" r="4.953" stroke="none"/>
        <circle cx="4.953" cy="4.953" r="4.453" fill="none"/>
      </g>
      <g id="Ellipse_36" data-name="Ellipse 36" transform="translate(6.934)" fill="none" stroke="#173654" stroke-width="1">
        <circle cx="4.953" cy="4.953" r="4.953" stroke="none"/>
        <circle cx="4.953" cy="4.953" r="4.453" fill="none"/>
      </g>
      <g id="Ellipse_37" data-name="Ellipse 37" transform="translate(30.709 20.803)" fill="none" stroke="#173654" stroke-width="1">
        <circle cx="4.953" cy="4.953" r="4.953" stroke="none"/>
        <circle cx="4.953" cy="4.953" r="4.453" fill="none"/>
      </g>
      <g id="Ellipse_38" data-name="Ellipse 38" transform="translate(54.483 4.953)" fill="none" stroke="#173654" stroke-width="1">
        <circle cx="4.953" cy="4.953" r="4.953" stroke="none"/>
        <circle cx="4.953" cy="4.953" r="4.453" fill="none"/>
      </g>
      <path id="Path_136" data-name="Path 136" d="M-1175,3649.95l5.691-28.68" transform="translate(1179.953 -3612.307)" fill="none" stroke="#173654" stroke-width="1"/>
      <path id="Path_137" data-name="Path 137" d="M-1163,3618.791l16.4,16.332" transform="translate(1178.907 -3611.78)" fill="none" stroke="#173654" stroke-width="1"/>
      <path id="Path_138" data-name="Path 138" d="M-1142,3634.992l13.869-10.344" transform="translate(1182.615 -3611.689)" fill="none" stroke="#173654" stroke-width="1"/>
    </g>
  </g>
</svg>
