<svg xmlns="http://www.w3.org/2000/svg" width="65.053" height="59.5" viewBox="0 0 65.053 59.5">
  <g id="Group_670" data-name="Group 670" transform="translate(-1311.947 -3006)">
    <path id="Path_144" data-name="Path 144" d="M-1180.053,3647.564H-1115" transform="translate(2492 -582.564)" fill="none" stroke="#173654" stroke-width="1"/>
    <g id="Group_305" data-name="Group 305" transform="translate(27 -606.222)">
      <g id="Ellipse_35" data-name="Ellipse 35" transform="translate(1285 3650.222)" fill="none" stroke="#173654" stroke-width="1">
        <circle cx="5" cy="5" r="5" stroke="none"/>
        <circle cx="5" cy="5" r="4.5" fill="none"/>
      </g>
      <g id="Ellipse_36" data-name="Ellipse 36" transform="translate(1292 3612.222)" fill="none" stroke="#173654" stroke-width="1">
        <circle cx="5" cy="5" r="5" stroke="none"/>
        <circle cx="5" cy="5" r="4.5" fill="none"/>
      </g>
      <g id="Ellipse_37" data-name="Ellipse 37" transform="translate(1316 3633.222)" fill="none" stroke="#173654" stroke-width="1">
        <circle cx="5" cy="5" r="5" stroke="none"/>
        <circle cx="5" cy="5" r="4.5" fill="none"/>
      </g>
      <g id="Ellipse_38" data-name="Ellipse 38" transform="translate(1340 3617.222)" fill="none" stroke="#173654" stroke-width="1">
        <circle cx="5" cy="5" r="5" stroke="none"/>
        <circle cx="5" cy="5" r="4.5" fill="none"/>
      </g>
      <path id="Path_136" data-name="Path 136" d="M-1175,3650.222l5.745-28.952" transform="translate(2465 0)" fill="none" stroke="#173654" stroke-width="1"/>
      <path id="Path_137" data-name="Path 137" d="M-1163,3618.791l16.555,16.486" transform="translate(2464.058 0.508)" fill="none" stroke="#173654" stroke-width="1"/>
      <path id="Path_138" data-name="Path 138" d="M-1142,3635.09l14-10.442" transform="translate(2468 0.656)" fill="none" stroke="#173654" stroke-width="1"/>
    </g>
  </g>
</svg>
