<svg id="Group_618" data-name="Group 618" xmlns="http://www.w3.org/2000/svg" xmlns:xlink="http://www.w3.org/1999/xlink" viewBox="0 0 24.009 24">
  <defs>
    <clipPath id="clip-path">
      <rect id="Rectangle_368" data-name="Rectangle 368" width="24.009" height="24" fill="none"/>
    </clipPath>
  </defs>
  <g id="Group_617" data-name="Group 617" clip-path="url(#clip-path)">
    <path id="Path_210" data-name="Path 210" d="M24.006,11.988q0,5.087,0,10.174a1.752,1.752,0,0,1-.618,1.431A1.66,1.66,0,0,1,22.3,24Q12,24,1.7,24A1.711,1.711,0,0,1,0,22.323c0-.07,0-.141,0-.212Q0,11.99,0,1.869a2.359,2.359,0,0,1,.084-.7A1.688,1.688,0,0,1,1.732,0H22.263a1.7,1.7,0,0,1,1.679,1.245A2.384,2.384,0,0,1,24,1.858q.005,5.065,0,10.13M12.777,10.494c0-.029-.006-.078-.006-.126,0-.4-.007-.807,0-1.21,0-.157-.052-.2-.2-.195-1.013.006-2.026,0-3.039,0-.207,0-.207,0-.207.211V20.261c0,.218,0,.218.211.218H12.7c.22,0,.22,0,.22-.226q0-2.767,0-5.534a5.28,5.28,0,0,1,.153-1.392A1.789,1.789,0,0,1,14.172,12a2.6,2.6,0,0,1,1.221-.119,1.508,1.508,0,0,1,.726.275,1.638,1.638,0,0,1,.643,1.109,8.108,8.108,0,0,1,.121,1.274c.012,1.915.007,3.831,0,5.746,0,.146.03.2.191.2q1.625-.011,3.251,0c.151,0,.185-.052.185-.192,0-1.391,0-2.782,0-4.173-.007-1.083-.02-2.166-.061-3.247a5.67,5.67,0,0,0-.489-2.137,3.167,3.167,0,0,0-1.922-1.766,5.454,5.454,0,0,0-2.2-.262,3.727,3.727,0,0,0-2.3.952,11.012,11.012,0,0,0-.753.837M3.525,14.7v5.577c0,.2,0,.2.2.2H6.915c.2,0,.2,0,.2-.2q0-5.562,0-11.124c0-.155-.047-.2-.2-.2-1.063.006-2.126,0-3.189,0-.208,0-.209,0-.209.206V14.7m1.8-7.258a2.093,2.093,0,1,0-2.076-2.1,2.077,2.077,0,0,0,2.076,2.1" transform="translate(0 0)" fill="#1dc1f4"/>
  </g>
</svg>
