<svg id="Group_817" data-name="Group 817" xmlns="http://www.w3.org/2000/svg" xmlns:xlink="http://www.w3.org/1999/xlink" width="110.902" height="46.529" viewBox="0 0 433.993 182.081">
  <defs>
    <clipPath id="clip-path">
      <rect id="Rectangle_407" data-name="Rectangle 407" width="433.993" height="182.081" fill="#11bfa2"/>
    </clipPath>
  </defs>
  <g id="Group_661" data-name="Group 661" transform="translate(0 0)" clip-path="url(#clip-path)">
    <path id="Path_233" data-name="Path 233" d="M132.72,41.806h13.687c7.667,0,13.642-1.807,17.76-5.365,4.151-3.591,6.256-8.8,6.256-15.494,0-6.749-2.12-11.993-6.3-15.585C159.976,1.8,153.986,0,146.319,0H119.773V65.25H132.72Zm0-30.845h12.64c4.09,0,7.162.836,9.129,2.487,1.923,1.616,2.9,4.138,2.9,7.5,0,3.408-.948,5.862-2.9,7.5s-5.037,2.487-9.129,2.487H132.72Z" transform="translate(72.052 0)" fill="#11bfa2"/>
    <path id="Path_234" data-name="Path 234" d="M206.166,54.289H172.39V38.061h29.586V27.1H172.39V10.961h33.426V0H159.443V65.25h46.723Z" transform="translate(95.917 0)" fill="#11bfa2"/>
    <path id="Path_235" data-name="Path 235" d="M244.856,54.289H211.08V38.061h29.586V27.1H211.08V10.961h33.426V0H198.133V65.25h46.723Z" transform="translate(119.192 0)" fill="#11bfa2"/>
    <path id="Path_236" data-name="Path 236" d="M249.77,41.449h12.709L276.7,65.25h14.538L275.391,39.291a19.962,19.962,0,0,0,9.174-6.722,19.226,19.226,0,0,0,3.693-11.8c0-6.634-2.119-11.816-6.3-15.407C277.81,1.8,271.88,0,264.33,0H236.823V65.25H249.77Zm0-30.488h13.25c4.1,0,7.2.839,9.225,2.494,2.005,1.638,2.979,4.031,2.979,7.314s-.974,5.674-2.979,7.313c-2.024,1.654-5.128,2.494-9.225,2.494H249.77Z" transform="translate(142.466 0)" fill="#11bfa2"/>
    <path id="Path_237" data-name="Path 237" d="M144.528,50.427h-24.8v65.251h24.8c9.547,0,17.345-3.021,23.176-8.977s8.781-13.908,8.781-23.649-2.955-17.7-8.781-23.649-13.631-8.977-23.176-8.977m13.66,48.686c-3.171,3.717-7.768,5.6-13.66,5.6H132.673V61.388h11.855c5.892,0,10.489,1.887,13.66,5.6,3.2,3.754,4.827,9.158,4.827,16.061s-1.624,12.3-4.827,16.061" transform="translate(72.024 30.336)" fill="#11bfa2"/>
    <path id="Path_238" data-name="Path 238" d="M182.062,50.427l-25.677,65.251h13.072l5.935-15.6h26.994l5.847,15.6h13.6L196.157,50.427Zm16.233,38.867H179.581l9.436-24.738Z" transform="translate(94.077 30.336)" fill="#11bfa2"/>
    <path id="Path_239" data-name="Path 239" d="M253.529,50.427H195.635V61.388h22.342v54.29H231.1V61.388h22.43Z" transform="translate(117.689 30.335)" fill="#11bfa2"/>
    <path id="Path_240" data-name="Path 240" d="M269.886,50.427h-14.1l-25.676,65.251h13.072l5.936-15.6h26.995l5.847,15.6h13.6Zm2.138,38.867H253.31l9.436-24.738Z" transform="translate(138.43 30.336)" fill="#11bfa2"/>
    <path id="Path_241" data-name="Path 241" d="M52.161,29.257,58.5,24.19H45.984v5.067Z" transform="translate(27.663 14.552)" fill="#11bfa2"/>
    <path id="Path_242" data-name="Path 242" d="M64.206,79.1,43.469,95.691h2.678v4.347l23.127-18.5v-41.3H64.206Z" transform="translate(26.15 24.205)" fill="#11bfa2"/>
    <path id="Path_243" data-name="Path 243" d="M56.417,35.77v9.59h5.067V31.717Z" transform="translate(33.939 19.08)" fill="#11bfa2"/>
    <path id="Path_244" data-name="Path 244" d="M37.011,137.921v-6.49L5.067,156.986V29.257H73.647V24.19H0V167.529Z" transform="translate(0 14.552)" fill="#11bfa2"/>
    <path id="Path_245" data-name="Path 245" d="M33.7,83.323V74.862H28.635V87.377Z" transform="translate(17.226 45.035)" fill="#11bfa2"/>
    <path id="Path_246" data-name="Path 246" d="M33.7,59.154,56.42,40.98V34.492L28.635,56.72V99.147H33.7Z" transform="translate(17.226 20.749)" fill="#11bfa2"/>
    <path id="Path_247" data-name="Path 247" d="M81.777,33.077l27.284-21.828V138.977H45.141v5.067h68.988V.706L79.1,28.731h2.679Z" transform="translate(27.155 0.424)" fill="#11bfa2"/>
    <path id="Path_248" data-name="Path 248" d="M40.752,87.041l-6.334,5.067H51.592V87.041Z" transform="translate(20.705 52.361)" fill="#11bfa2"/>
    <path id="Path_249" data-name="Path 249" d="M60.014,27.79v5.565L73.523,22.55V18.2H70.842L58.861,27.79Z" transform="translate(35.409 10.951)" fill="#11bfa2"/>
    <path id="Path_250" data-name="Path 250" d="M62.693,31.906V27.353h-2.42L45.984,38.785v6.49Z" transform="translate(27.663 16.455)" fill="#11bfa2"/>
    <path id="Path_251" data-name="Path 251" d="M57.326,29.257V33.81l5.067-4.054V24.19H61.239l-6.333,5.067Z" transform="translate(33.03 14.552)" fill="#11bfa2"/>
    <rect id="Rectangle_403" data-name="Rectangle 403" width="0.003" height="23.935" transform="translate(60.271 115.404)" fill="#11bfa2"/>
    <rect id="Rectangle_404" data-name="Rectangle 404" width="11.334" height="0.003" transform="translate(35.768 142.44)" fill="#11bfa2"/>
    <path id="Path_252" data-name="Path 252" d="M33.11,92.295H31.958V86.729l-8.849,7.079v6.486Z" transform="translate(13.902 52.174)" fill="#11bfa2"/>
    <path id="Path_253" data-name="Path 253" d="M53.167,79.207V74.862H50.491L31.8,89.816v4.552h2.417Z" transform="translate(19.129 45.035)" fill="#11bfa2"/>
    <rect id="Rectangle_405" data-name="Rectangle 405" width="6.489" height="0.003" transform="matrix(0.781, -0.625, 0.625, 0.781, 45.859, 138.901)" fill="#11bfa2"/>
    <path id="Path_254" data-name="Path 254" d="M33.7,88.75V84.2l-5.067,4.054v5.565h1.152L36.12,88.75Z" transform="translate(17.226 50.652)" fill="#11bfa2"/>
    <rect id="Rectangle_406" data-name="Rectangle 406" width="8.112" height="0.003" transform="translate(47.012 144.468) rotate(-38.66)" fill="#11bfa2"/>
  </g>
</svg>
