<svg xmlns="http://www.w3.org/2000/svg" viewBox="0 0 824.232 171.302">
  <g id="Group_813" data-name="Group 813" transform="translate(5160.723 222.661)">
    <path id="Path_233" data-name="Path 233" d="M136.395,53.671h17.572c9.843,0,17.514-2.319,22.8-6.888,5.33-4.61,8.031-11.3,8.031-19.891,0-8.665-2.722-15.4-8.091-20.008C171.386,2.315,163.7,0,153.853,0h-34.08V83.769h16.622Zm0-39.6h16.227c5.251,0,9.2,1.073,11.72,3.193,2.469,2.075,3.722,5.313,3.722,9.627,0,4.375-1.217,7.525-3.722,9.627-2.523,2.118-6.467,3.193-11.72,3.193H136.395Z" transform="translate(-5108.801 -219.138)" fill="currentColor"/>
    <path id="Path_234" data-name="Path 234" d="M219.427,69.7H176.065V48.864h37.983V34.79H176.065V14.072h42.914V0H159.443V83.769h59.984Z" transform="translate(-5066.904 -219.138)" fill="currentColor"/>
    <path id="Path_235" data-name="Path 235" d="M258.117,69.7H214.755V48.864h37.983V34.79H214.755V14.072h42.914V0H198.133V83.769h59.984Z" transform="translate(-5026.04 -219.138)" fill="currentColor"/>
    <path id="Path_236" data-name="Path 236" d="M253.445,53.213H269.76l18.262,30.556h18.664L286.337,50.443a25.628,25.628,0,0,0,11.777-8.63,24.682,24.682,0,0,0,4.741-15.15c0-8.517-2.72-15.17-8.089-19.78C289.444,2.315,281.83,0,272.137,0H236.823V83.769h16.622Zm0-39.141h17.01c5.26,0,9.244,1.077,11.843,3.2,2.574,2.1,3.824,5.175,3.824,9.39s-1.25,7.285-3.824,9.388c-2.6,2.124-6.584,3.2-11.843,3.2h-17.01Z" transform="translate(-4985.178 -219.138)" fill="currentColor"/>
    <path id="Path_237" data-name="Path 237" d="M151.567,50.427H119.726V134.2h31.841c12.257,0,22.268-3.878,29.754-11.525S192.6,104.818,192.6,92.313,188.8,69.594,181.322,61.952s-17.5-11.525-29.754-11.525m17.537,62.5c-4.071,4.772-9.972,7.194-17.537,7.194h-15.22V64.5h15.22c7.564,0,13.466,2.422,17.537,7.194,4.112,4.82,6.2,11.757,6.2,20.619s-2.085,15.8-6.2,20.619" transform="translate(-4767.218 -268.114)" fill="currentColor"/>
    <path id="Path_238" data-name="Path 238" d="M189.349,50.427,156.385,134.2h16.782l7.62-20.029h34.656L222.95,134.2h17.461L207.445,50.427Zm20.841,49.9H186.164l12.115-31.759Z" transform="translate(-4728.5 -268.114)" fill="currentColor"/>
    <path id="Path_239" data-name="Path 239" d="M269.96,50.427H195.635V64.5h28.683v69.7h16.846V64.5h28.8Z" transform="translate(-4687.047 -268.114)" fill="currentColor"/>
    <path id="Path_240" data-name="Path 240" d="M281.174,50.427h-18.1L230.114,134.2H246.9l7.62-20.029h34.656l7.507,20.029H314.14Zm2.745,49.9H259.893l12.115-31.759Z" transform="translate(-4650.631 -268.114)" fill="currentColor"/>
    <g id="Group_811" data-name="Group 811" transform="translate(-5160.723 -222.661)">
      <path id="Path_241" data-name="Path 241" d="M51.832,28.987l6-4.8H45.984v4.8Z" transform="translate(23.734 11.416)" fill="currentColor"/>
      <path id="Path_242" data-name="Path 242" d="M63.1,77.029l-19.631,15.7H46v4.113h0L67.9,79.334v-39.1H63.1Z" transform="translate(22.44 19.699)" fill="currentColor"/>
      <path id="Path_243" data-name="Path 243" d="M56.417,35.554v9.079h4.8V31.717Z" transform="translate(29.121 15.302)" fill="currentColor"/>
      <path id="Path_244" data-name="Path 244" d="M35.037,131.856v-6.143L4.8,149.9V28.987H69.719v-4.8H0v135.7Z" transform="translate(0 11.416)" fill="currentColor"/>
      <path id="Path_245" data-name="Path 245" d="M33.432,82.872v-8.01h-4.8V86.709Z" transform="translate(14.78 37.572)" fill="currentColor"/>
      <path id="Path_246" data-name="Path 246" d="M33.432,57.839,54.939,40.634V34.492l-26.3,21.043V95.7h4.8Z" transform="translate(14.78 16.734)" fill="currentColor"/>
      <path id="Path_247" data-name="Path 247" d="M79.823,31.35l25.829-20.664V131.6H45.141v4.8H110.45V.706L77.286,27.237h2.537Z" transform="translate(23.298 -0.706)" fill="currentColor"/>
      <path id="Path_248" data-name="Path 248" d="M40.414,87.041l-6,4.8H50.676v-4.8Z" transform="translate(17.764 43.858)" fill="currentColor"/>
      <path id="Path_249" data-name="Path 249" d="M59.953,27.279v5.269l12.789-10.23V18.2H70.2L58.861,27.279Z" transform="translate(30.378 8.327)" fill="currentColor"/>
      <path id="Path_250" data-name="Path 250" d="M61.8,31.664v-4.31H59.511L45.984,38.176v6.144Z" transform="translate(23.734 13.049)" fill="currentColor"/>
      <path id="Path_251" data-name="Path 251" d="M57.2,28.987V33.3l4.8-3.837V24.19H60.9l-5.995,4.8Z" transform="translate(28.341 11.416)" fill="currentColor"/>
      <rect id="Rectangle_403" data-name="Rectangle 403" width="0.003" height="22.659" transform="translate(57.054 108.181)" fill="currentColor"/>
      <rect id="Rectangle_404" data-name="Rectangle 404" width="10.73" height="0.003" transform="translate(33.86 133.775)" fill="currentColor"/>
      <path id="Path_252" data-name="Path 252" d="M32.576,92h-1.09V86.729l-8.377,6.7v6.14Z" transform="translate(11.93 43.698)" fill="currentColor"/>
      <path id="Path_253" data-name="Path 253" d="M52.028,78.975V74.862H49.494L31.8,89.018v4.309h2.288Z" transform="translate(16.415 37.572)" fill="currentColor"/>
      <rect id="Rectangle_405" data-name="Rectangle 405" width="6.143" height="0.003" transform="matrix(0.781, -0.625, 0.625, 0.781, 43.416, 130.425)" fill="currentColor"/>
      <path id="Path_254" data-name="Path 254" d="M33.432,88.507V84.2l-4.8,3.837V93.3h1.09l6-4.8Z" transform="translate(14.78 42.391)" fill="currentColor"/>
      <rect id="Rectangle_406" data-name="Rectangle 406" width="7.679" height="0.003" transform="translate(44.506 135.695) rotate(-38.66)" fill="currentColor"/>
    </g>
  </g>
</svg>
