<svg id="Layer_1" data-name="Layer 1" xmlns="http://www.w3.org/2000/svg" viewBox="0 0 360 144"><defs><style>.cls-1{fill:#fff;}</style></defs><title>Peer Data Logo Files</title><path class="cls-1" d="M107.65,71.54V86.32h-3.82V53.38h6.9a26.4,26.4,0,0,1,5.34.39A8.21,8.21,0,0,1,119,55a7.51,7.51,0,0,1,2.46,3.08,11,11,0,0,1,0,8.68A7.54,7.54,0,0,1,119,69.88a8.26,8.26,0,0,1-3,1.28,27.32,27.32,0,0,1-5.35.38h-3.08Zm0-3.55h2q5,0,6.78-1.19c1.17-.78,1.75-2.16,1.75-4.12s-.6-3.58-1.79-4.44S112.93,57,109.63,57h-2Z"/><path class="cls-1" d="M129.07,86.32V53.38h17.37V57H133v9.45h13.46v3.65H133V82.68h13.46v3.64Z"/><path class="cls-1" d="M154.92,86.32V53.38h17.36V57H158.83v9.45h13.45v3.65H158.83V82.68h13.45v3.64Z"/><path class="cls-1" d="M180.76,86.32V53.38h7.74a22.44,22.44,0,0,1,4.85.38A7,7,0,0,1,196.06,55a7.47,7.47,0,0,1,2.28,3.07,10.85,10.85,0,0,1,.81,4.26,8,8,0,0,1-2.27,6.15q-2.25,2.11-6.62,2.11h-.7l12.58,15.7h-5l-12-15.7h-.56v15.7Zm3.83-29.63v11h3q4.59,0,6.14-1.19c1-.78,1.56-2.16,1.56-4.12,0-2.12-.54-3.6-1.6-4.45s-3.1-1.27-6.1-1.27Z"/><path class="cls-1" d="M222.7,86.32V53.38H229a47.17,47.17,0,0,1,9.89.71,13.44,13.44,0,0,1,9.32,8,19.53,19.53,0,0,1,1.47,7.83,19.75,19.75,0,0,1-1.45,7.79,13.72,13.72,0,0,1-4.31,5.57A13.39,13.39,0,0,1,239,85.61a37.76,37.76,0,0,1-8.58.71H222.7Zm4-3.69h2.5a43.78,43.78,0,0,0,8.41-.53,9.05,9.05,0,0,0,3.89-1.81,10.55,10.55,0,0,0,3.08-4.35,18.16,18.16,0,0,0,0-12.2,10.62,10.62,0,0,0-3.09-4.33,9.24,9.24,0,0,0-4-1.85,42.54,42.54,0,0,0-8.35-.55h-2.5Z"/><path class="cls-1" d="M267.56,52.08l15,34.24h-4.25L274,76.22H261.15l-4.28,10.1h-4.25Zm0,8.66-5.24,12.13H272.8Z"/><path class="cls-1" d="M291,86.32V57.12h-9.31V53.38h22.54v3.74H295v29.2Z"/><path class="cls-1" d="M317.52,52.08l15,34.24h-4.26L324,76.22H311.11l-4.27,10.1h-4.26Zm0,8.66-5.24,12.13h10.48Z"/><path class="cls-1" d="M85.56,28.2,65.73,46.41H26.21V115.8L46,97.59H85.56ZM28.2,48.39H63.57L45.33,65.14V95.55L28.2,111.28Zm36.26,1.89V78L47.32,93.72V66ZM83.58,95.61H48.2L66.44,78.86V48.45L83.58,32.72Z"/></svg>
