<svg id="Layer_1" data-name="Layer 1" xmlns="http://www.w3.org/2000/svg" viewBox="0 0 360 360"><defs><style>.cls-1{fill:#fff;}</style></defs><title>Peer Data Logo Files</title><path class="cls-1" d="M169.53,113.76l-30,27.54H79.78V246.24l30-27.54h59.77ZM82.78,144.3h53.5L108.7,169.63v46l-25.92,23.8Zm54.83,2.85v41.9l-25.91,23.8V171Zm28.92,68.55H113l27.58-25.33v-46l25.92-23.8Z"/><path class="cls-1" d="M187.42,162.1v13.65h-3.54V145.33h6.39a24.38,24.38,0,0,1,4.92.35,7.54,7.54,0,0,1,2.74,1.16,7,7,0,0,1,2.28,2.85,10.21,10.21,0,0,1,0,8,6.92,6.92,0,0,1-2.28,2.85,7.36,7.36,0,0,1-2.73,1.19,25.13,25.13,0,0,1-4.93.35h-2.85Zm0-3.29h1.83q4.65,0,6.26-1.09c1.08-.72,1.61-2,1.61-3.81s-.55-3.31-1.65-4.1-3.18-1.18-6.22-1.18h-1.83Z"/><path class="cls-1" d="M205.5,175.75V145.33h16.05v3.3H209.12v8.73h12.43v3.37H209.12v11.66h12.43v3.36Z"/><path class="cls-1" d="M227.68,175.75V145.33h16v3.3H231.29v8.73h12.43v3.37H231.29v11.66h12.43v3.36Z"/><path class="cls-1" d="M249.85,175.75V145.33H257a21,21,0,0,1,4.48.34,6.67,6.67,0,0,1,2.51,1.17,7,7,0,0,1,2.1,2.84,10,10,0,0,1,.74,3.94,7.38,7.38,0,0,1-2.08,5.68q-2.1,1.95-6.13,1.95H258l11.62,14.5H265l-11.1-14.5h-.52v14.5Zm3.54-27.37v10.19h2.76q4.25,0,5.68-1.1c.95-.72,1.43-2,1.43-3.81s-.49-3.32-1.48-4.11-2.86-1.17-5.63-1.17Z"/><path class="cls-1" d="M183.88,218V187.61h5.84a44,44,0,0,1,9.14.65,12.45,12.45,0,0,1,4.64,2.19,12.77,12.77,0,0,1,4,5.16,18,18,0,0,1,1.36,7.23,18.17,18.17,0,0,1-1.34,7.2,12.7,12.7,0,0,1-4,5.15,12.36,12.36,0,0,1-4.54,2.19A34.44,34.44,0,0,1,191,218h-7.15Zm3.66-3.41h2.31a41.54,41.54,0,0,0,7.77-.49,8.58,8.58,0,0,0,3.6-1.67,9.89,9.89,0,0,0,2.85-4,16.91,16.91,0,0,0,0-11.26,9.89,9.89,0,0,0-2.86-4,8.49,8.49,0,0,0-3.65-1.72,39.47,39.47,0,0,0-7.72-.51h-2.31Z"/><path class="cls-1" d="M223.62,186.4,237.47,218h-3.93l-3.95-9.34H217.7L213.75,218h-3.93Zm0,8-4.84,11.21h9.69Z"/><path class="cls-1" d="M243.6,218v-27H235v-3.45h20.83v3.45h-8.56v27Z"/><path class="cls-1" d="M266.38,186.4,280.22,218h-3.93l-4-9.34H260.45L256.5,218h-3.92Zm0,8-4.84,11.21h9.68Z"/></svg>
